<svg xmlns="http://www.w3.org/2000/svg" width="20.082" height="20.108" viewBox="0 0 20.082 20.108">
  <path id="Контур_219" data-name="Контур 219" d="M128.708,147.858a1.39,1.39,0,0,0,.986.423,1.351,1.351,0,0,0,.986-.423l7.652-7.652,7.652,7.652a1.39,1.39,0,0,0,.986.423,1.351,1.351,0,0,0,.986-.423,1.431,1.431,0,0,0,0-2l-7.629-7.629,7.629-7.652a1.431,1.431,0,0,0,0-2,1.41,1.41,0,0,0-2,0l-7.629,7.652-7.652-7.629a1.411,1.411,0,0,0-2,2l7.652,7.629-7.629,7.652A1.361,1.361,0,0,0,128.708,147.858Z" transform="translate(-128.279 -128.173)"/>
</svg>
