<svg xmlns="http://www.w3.org/2000/svg" width="45.866" height="35.125" viewBox="0 0 45.866 35.125">
  <g id="Сгруппировать_325" data-name="Сгруппировать 325" transform="translate(-1638 -4483)">
    <g id="Прямоугольник_312" data-name="Прямоугольник 312" transform="translate(1640.322 4493.45)" fill="none" stroke="#000" stroke-linecap="round" stroke-linejoin="round" stroke-width="2">
      <rect width="31.351" height="23.223" rx="5" stroke="none"/>
      <rect x="1" y="1" width="29.351" height="21.223" rx="4" fill="none"/>
    </g>
    <g id="Эллипс_55" data-name="Эллипс 55" transform="translate(1650.773 4500.417)" fill="none" stroke="#000" stroke-linecap="round" stroke-width="2">
      <circle cx="5.225" cy="5.225" r="5.225" stroke="none"/>
      <circle cx="5.225" cy="5.225" r="4.225" fill="none"/>
    </g>
    <line id="Линия_80" data-name="Линия 80" x2="31.351" transform="translate(1640.322 4486.483)" fill="none" stroke="#000" stroke-linecap="round" stroke-width="2"/>
    <path id="Многоугольник_5" data-name="Многоугольник 5" d="M2.626,1.429a1,1,0,0,1,1.715,0L6.058,4.291A1,1,0,0,1,5.2,5.806H1.766A1,1,0,0,1,.909,4.291Z" transform="translate(1638 4489.967) rotate(-90)"/>
    <path id="Многоугольник_6" data-name="Многоугольник 6" d="M2.626,1.429a1,1,0,0,1,1.715,0L6.058,4.291A1,1,0,0,1,5.2,5.806H1.766A1,1,0,0,1,.909,4.291Z" transform="translate(1673.996 4483) rotate(90)"/>
    <g id="Сгруппировать_325-2" data-name="Сгруппировать 325" transform="translate(1683.866 4491.999) rotate(90)">
      <line id="Линия_81" data-name="Линия 81" x2="21.481" transform="translate(2.322 3.483)" fill="none" stroke="#000" stroke-linecap="round" stroke-width="2"/>
      <path id="Многоугольник_7" data-name="Многоугольник 7" d="M2.626,1.429a1,1,0,0,1,1.715,0L6.058,4.291A1,1,0,0,1,5.2,5.806H1.766A1,1,0,0,1,.909,4.291Z" transform="translate(0 6.967) rotate(-90)"/>
      <path id="Многоугольник_8" data-name="Многоугольник 8" d="M2.626,1.429a1,1,0,0,1,1.715,0L6.058,4.291A1,1,0,0,1,5.2,5.806H1.766A1,1,0,0,1,.909,4.291Z" transform="translate(26.126) rotate(90)"/>
    </g>
  </g>
</svg>
