<svg id="Сгруппировать_111" data-name="Сгруппировать 111" xmlns="http://www.w3.org/2000/svg" width="40" height="40" viewBox="0 0 40 40">
  <path id="Контур_196" data-name="Контур 196" d="M131.492,145.729l-12.762,11.322L112,151.907a1.778,1.778,0,0,0-2.119.04,1.031,1.031,0,0,0,.05,1.688l7.827,6a1.682,1.682,0,0,0,1.047.338h.05a1.669,1.669,0,0,0,1.047-.4l13.808-12.236a1.034,1.034,0,0,0-.125-1.688A1.712,1.712,0,0,0,131.492,145.729Z" transform="translate(-101.793 -132.639)" fill="#12f022"/>
  <path id="Контур_197" data-name="Контур 197" d="M20,0A20,20,0,1,0,40,20,20.016,20.016,0,0,0,20,0Zm0,37.276A17.276,17.276,0,1,1,37.276,20,17.284,17.284,0,0,1,20,37.276Z" fill="#12f022"/>
</svg>
