<svg id="Сгруппировать_108" data-name="Сгруппировать 108" xmlns="http://www.w3.org/2000/svg" width="40" height="40" viewBox="0 0 40 40">
  <path id="Контур_191" data-name="Контур 191" d="M128.7,147.591a1.372,1.372,0,0,0,.973.417,1.333,1.333,0,0,0,.973-.417l7.549-7.549,7.549,7.549a1.372,1.372,0,0,0,.973.417,1.333,1.333,0,0,0,.973-.417,1.412,1.412,0,0,0,0-1.968l-7.526-7.525,7.526-7.549a1.412,1.412,0,0,0,0-1.968,1.39,1.39,0,0,0-1.968,0l-7.526,7.549-7.549-7.526a1.392,1.392,0,0,0-1.968,1.968l7.549,7.526-7.526,7.549A1.343,1.343,0,0,0,128.7,147.591Z" transform="translate(-118.195 -118.097)" fill="#f05212"/>
  <path id="Контур_192" data-name="Контур 192" d="M20,40A20,20,0,1,0,0,20,20.016,20.016,0,0,0,20,40ZM20,2.724A17.276,17.276,0,1,1,2.724,20,17.284,17.284,0,0,1,20,2.724Z" fill="#f05212"/>
</svg>
