<svg xmlns="http://www.w3.org/2000/svg" width="18.073" height="21" viewBox="0 0 18.073 21">
  <g id="uploading-file" transform="translate(5)">
    <g id="Сгруппировать_4" data-name="Сгруппировать 4" transform="translate(-5)">
      <path id="Контур_4" data-name="Контур 4" d="M67.573,6.976a.663.663,0,0,0,.992.038l4.445-4.472v11.64a.7.7,0,1,0,1.4,0V2.5l4.445,4.523a.659.659,0,0,0,.992-.038A.82.82,0,0,0,79.81,5.9L74.211.217a.7.7,0,0,0-.257-.166A.839.839,0,0,0,73.709,0a.7.7,0,0,0-.583.345L67.608,5.89A.82.82,0,0,0,67.573,6.976Z" transform="translate(-64.384)"/>
      <path id="Контур_5" data-name="Контур 5" d="M20.6,252.167a.771.771,0,0,0-.769.769v6.921a.771.771,0,0,0,.769.769H37.137a.771.771,0,0,0,.769-.769v-6.921a.769.769,0,0,0-1.538,0v6.152h-15v-6.152A.771.771,0,0,0,20.6,252.167Z" transform="translate(-19.833 -239.627)"/>
    </g>
  </g>
</svg>
