<svg xmlns="http://www.w3.org/2000/svg" width="23.706" height="25" viewBox="0 0 23.706 25">
  <path id="Icon_awesome-viber" data-name="Icon awesome-viber" d="M21.96,2.437C21.34,1.866,18.831.045,13.236.02c0,0-6.6-.4-9.808,2.553C1.641,4.361,1.011,6.982.943,10.229s-.151,9.33,5.712,10.98h0l0,2.519s-.039,1.02.635,1.225c.81.254,1.289-.522,2.065-1.357.425-.459,1.011-1.133,1.455-1.645a22.687,22.687,0,0,0,7.445-.547c.81-.264,5.395-.85,6.137-6.933.771-6.279-.371-10.243-2.431-12.035Zm.679,11.576c-.63,5.077-4.345,5.4-5.029,5.619a20.99,20.99,0,0,1-6.405.547s-2.539,3.061-3.33,3.857c-.259.259-.542.234-.537-.278,0-.337.02-4.184.02-4.184h0c-4.97-1.377-4.677-6.557-4.623-9.266S3.3,5.376,4.814,3.882c2.719-2.466,8.319-2.1,8.319-2.1,4.731.02,7,1.445,7.523,1.924C22.4,5.2,23.288,8.774,22.639,14.013Zm-6.786-3.945a.315.315,0,0,1-.63.029,1.51,1.51,0,0,0-1.592-1.655.315.315,0,0,1,.034-.63A2.123,2.123,0,0,1,15.853,10.068Zm.991.552a3.647,3.647,0,0,0-3.7-3.872.316.316,0,0,1,.044-.63,4.276,4.276,0,0,1,4.287,4.516A.315.315,0,0,1,16.844,10.62Zm2.295.654a.315.315,0,0,1-.63,0c-.029-3.979-2.68-6.147-5.9-6.171a.315.315,0,0,1,0-.63C16.209,4.5,19.1,6.987,19.139,11.274Zm-.552,4.789v.01c-.527.928-1.513,1.953-2.529,1.626l-.01-.015a18.767,18.767,0,0,1-4.99-2.758,12.763,12.763,0,0,1-2.07-2.07,15.843,15.843,0,0,1-1.5-2.275A14.588,14.588,0,0,1,6.215,7.861c-.327-1.015.693-2,1.626-2.529h.01a.889.889,0,0,1,1.167.19s.605.723.864,1.079c.244.332.571.864.742,1.162a1.019,1.019,0,0,1-.181,1.3l-.586.469a.859.859,0,0,0-.259.684,6.113,6.113,0,0,0,4.116,4.116.859.859,0,0,0,.684-.259l.469-.586a1.019,1.019,0,0,1,1.3-.181A12.65,12.65,0,0,1,18.4,14.911a.872.872,0,0,1,.186,1.152Z" transform="translate(-0.927 -0.003)"/>
</svg>
