<svg id="right-direction" xmlns="http://www.w3.org/2000/svg" width="20.243" height="15" viewBox="0 0 20.243 15">
  <g id="Сгруппировать_25" data-name="Сгруппировать 25" transform="translate(0 0)">
    <path id="Контур_37" data-name="Контур 37" d="M0,62.578a.812.812,0,0,0,.809.809H17.3L11.4,68.661a.809.809,0,0,0,.539,1.416.84.84,0,0,0,.539-.2l7.5-6.689a.8.8,0,0,0,.27-.607.819.819,0,0,0-.27-.607l-7.5-6.689A.812.812,0,0,0,11.4,56.5L17.3,61.769H.809A.812.812,0,0,0,0,62.578Z" transform="translate(0 -55.077)" fill="#fff"/>
  </g>
</svg>
