<svg xmlns="http://www.w3.org/2000/svg" width="1001" height="720" viewBox="0 0 1001 720">
  <rect id="Прямоугольник_379" data-name="Прямоугольник 379" width="400" height="340" transform="translate(601)" fill="#00eed6"/>
  <path id="Контур_208" data-name="Контур 208" d="M0,0H560V340H0Z" fill="#f9fafa"/>
  <rect id="Прямоугольник_381" data-name="Прямоугольник 381" width="400" height="340" transform="translate(0 380)" fill="#00eed6"/>
  <rect id="Прямоугольник_382" data-name="Прямоугольник 382" width="560" height="340" transform="translate(440 380)" fill="#f9fafa"/>
  <text id="Образцы_продукции" data-name="Образцы продукции" transform="translate(50 78)" font-size="30" font-family="Rubik-Bold, Rubik" font-weight="700"><tspan x="0" y="0">Образцы продукции</tspan></text>
  <text id="Предоставление_образцов_продукции" data-name="Предоставление образцов продукции" transform="translate(50 106)" font-size="18" font-family="Rubik-Regular, Rubik"><tspan x="0" y="17">предоставление образцов </tspan><tspan x="0" y="47">продукции</tspan></text>
  <path id="Контур_17" data-name="Контур 17" d="M7132.267,3219h90.667v134h-90.667Z" transform="translate(-6680 -3015.6)" fill="#00eed6"/>
  <path id="Контур_18" data-name="Контур 18" d="M7132.267,3429s-21.2,147.534,148.4,147,150.267-147,150.267-147h-88.267s-5.467,62.733-62,63.8-59.6-63.8-59.6-63.8Z" transform="translate(-6680 -3049)" fill="#00eed6"/>
  <path id="Контур_19" data-name="Контур 19" d="M7132.267,3219h90.667v136.6h-90.667Z" transform="translate(-6470.73 -3015.6)" fill="#fff"/>
  <text id="Создание_экспозиций" data-name="Создание 
экспозиций" transform="translate(50 508)" font-size="30" font-family="Rubik-Bold, Rubik" font-weight="700"><tspan x="0" y="0">Создание </tspan><tspan x="0" y="40">экспозиций</tspan></text>
  <text id="Создание_демонстрационных_экспозиций_на_объекте_или_в_офисе_партнёра" data-name="Создание демонстрационных экспозиций на объекте или в офисе партнёра" transform="translate(50 576)" font-size="18" font-family="Rubik-Regular, Rubik"><tspan x="0" y="17">создание демонстрационных </tspan><tspan x="0" y="47">экспозиций на объекте или в </tspan><tspan x="0" y="77">офисе партнёра</tspan></text>
  <text id="Реклама" transform="translate(950 78)" font-size="30" font-family="Rubik-Bold, Rubik" font-weight="700"><tspan x="-132.15" y="0">Реклама</tspan></text>
  <text id="Распространение_информации_о_компании-партнёре_более_25_000_подписчиков_" data-name="Распространение информации о компании-партнёре 
(более 25 000 подписчиков)" transform="translate(650 106)" font-size="18" font-family="Rubik-Regular, Rubik"><tspan x="14.52" y="17">распространение информации о </tspan><tspan x="123.6" y="47">компании-партнёре </tspan><tspan x="53.94" y="77">(более 25 000 подписчиков)</tspan></text>
  <text id="Обслуживание_ремонт_своевременная_замена" data-name="Обслуживание, 
ремонт, 
своевременная замена" transform="translate(950 503)" font-size="30" font-family="Rubik-Bold, Rubik" font-weight="700"><tspan x="-247.29" y="0">Обслуживание, </tspan><tspan x="-127.11" y="40">ремонт, </tspan><tspan x="-357.81" y="80">своевременная замена</tspan></text>
  <text id="Аудит_состояния_продукции_в_процессе_эксплуатации" data-name="Аудит состояния продукции в процессе эксплуатации" transform="translate(650 611)" font-size="18" font-family="Rubik-Regular, Rubik"><tspan x="39.522" y="17">аудит состояния продукции в </tspan><tspan x="90.516" y="47">процессе эксплуатации</tspan></text>
</svg>
