<svg xmlns="http://www.w3.org/2000/svg" width="1100" height="720" viewBox="0 0 1100 720">
  <rect id="Прямоугольник_384" data-name="Прямоугольник 384" width="340" height="340" transform="translate(760)" fill="#f9fafa"/>
  <rect id="Прямоугольник_385" data-name="Прямоугольник 385" width="340" height="340" transform="translate(380)" fill="#f35877"/>
  <rect id="Прямоугольник_386" data-name="Прямоугольник 386" width="340" height="340" fill="#f9fafa"/>
  <rect id="Прямоугольник_387" data-name="Прямоугольник 387" width="340" height="340" transform="translate(760 380)" fill="#f35877"/>
  <rect id="Прямоугольник_388" data-name="Прямоугольник 388" width="340" height="340" transform="translate(380 380)" fill="#f9fafa"/>
  <rect id="Прямоугольник_389" data-name="Прямоугольник 389" width="340" height="340" transform="translate(0 380)" fill="#f35877"/>
  <text id="_в_подборе_и_комплектации_проектов_изделиями_из_фибробетона" data-name=" в подборе и комплектации проектов изделиями из фибробетона" transform="translate(790 585)" fill="#fff" font-size="18" font-family="Rubik-Regular, Rubik"><tspan x="33.066" y="17" xml:space="preserve"> в подборе и комплектации </tspan><tspan x="64.476" y="47">проектов изделиями из </tspan><tspan x="153.63" y="77">фибробетона</tspan></text>
  <text id="Помощь" transform="translate(937 557)" fill="#fff" font-size="30" font-family="Rubik-Bold, Rubik" font-weight="700"><tspan x="0" y="0">Помощь</tspan></text>
  <path id="Контур_20" data-name="Контур 20" d="M7300.6,4494H7173.2v140.8H7262v-75.2h38.6Z" transform="translate(-6579 -4294)" fill="#fff"/>
  <path id="Контур_21" data-name="Контур 21" d="M7174.2,4674.1v171.1l126,.267v-66.4l-35.8-.267v-82.4l35.8.1v-22.4Z" transform="translate(-6580 -4294)" fill="#f35877"/>
  <path id="Контур_22" data-name="Контур 22" d="M7340.5,4562.05v-67s47.4-5.7,83.4,16.9c23.894,13.537,36.092,46.1,38.7,63.55,6.3,42.15-9.7,57.7-9.7,57.7H7340.5s30.193-11.151,30.35-38.9S7340.5,4562.05,7340.5,4562.05Z" transform="translate(-6580 -4294)" fill="#f35877"/>
  <path id="Контур_23" data-name="Контур 23" d="M7337,4696.533V4672.9h102s44.266,26.163,28.533,95.268c-6.12,26.882-17.5,43.291-50.133,62.474S7337,4845.9,7337,4845.9v-67.054s45.733-4.841,40.133-46.49c-1.786-13.286-6.419-18.643-12.267-23.875C7353.113,4697.956,7337,4696.533,7337,4696.533Z" transform="translate(-6580 -4294)" fill="#fff"/>
  <text id="Экспертная_проработка_и_адаптация_дизайн-проектов" data-name="Экспертная проработка и адаптация дизайн-проектов" transform="translate(790 96)" font-size="18" font-family="Rubik-Regular, Rubik"><tspan x="47.736" y="17">экспертная проработка и </tspan><tspan x="20.574" y="47">адаптация дизайн-проектов</tspan></text>
  <text id="Консультации" transform="translate(1060 68)" font-size="30" font-family="Rubik-Bold, Rubik" font-weight="700"><tspan x="-219.69" y="0">Консультации</tspan></text>
  <text id="Большой_ассортимент_серийной_продукции" data-name="Большой ассортимент серийной продукции" transform="translate(415 96)" fill="#fff" font-size="18" font-family="Rubik-Regular, Rubik"><tspan x="38.232" y="17">большой ассортимент </tspan><tspan x="42.795" y="47">серийной продукции</tspan></text>
  <text id="Разработка_и_реализация_изделий_по_индивидуальному_заказу" data-name="Разработка и реализация изделий по индивидуальному заказу" transform="translate(42 585)" fill="#fff" font-size="18" font-family="Rubik-Regular, Rubik"><tspan x="0" y="17">разработка и реализация </tspan><tspan x="0" y="47">изделий по индивидуальному </tspan><tspan x="0" y="77">заказу</tspan></text>
  <text id="Индивидуальный_заказ" data-name="Индивидуальный
заказ" transform="translate(40 517)" fill="#fff" font-size="30" font-family="Rubik-Bold, Rubik" font-weight="700"><tspan x="0" y="0">Индивидуальный</tspan><tspan x="0" y="40">заказ</tspan></text>
  <text id="Образцы" transform="translate(40 68)" font-size="30" font-family="Rubik-Bold, Rubik" font-weight="700"><tspan x="0" y="0">Образцы</tspan></text>
  <text id="Предоставление_образцов_продукции" data-name="Предоставление образцов продукции" transform="translate(40 96)" font-size="18" font-family="Rubik-Regular, Rubik"><tspan x="0" y="17">предоставление образцов </tspan><tspan x="0" y="47">продукции</tspan></text>
  <text id="Ассортимент" transform="translate(447.5 68)" fill="#fff" font-size="30" font-family="Rubik-Bold, Rubik" font-weight="700"><tspan x="0" y="0">Ассортимент</tspan></text>
  <g id="Сгруппировать_395" data-name="Сгруппировать 395" transform="translate(-610 -3058)">
    <text id="Наличие_популярных_моделей_на_складе" data-name="Наличие популярных моделей на складе" transform="translate(1025 3667)" font-size="18" font-family="Rubik-Regular, Rubik"><tspan x="3.852" y="17">наличие популярных моделей </tspan><tspan x="91.926" y="47">на складе</tspan></text>
    <text id="Доступность" transform="translate(1060 3639.231)" font-size="30" font-family="Rubik-Bold, Rubik" font-weight="700"><tspan x="0" y="0">Доступность</tspan></text>
  </g>
</svg>
