<svg xmlns="http://www.w3.org/2000/svg" width="64.25" height="50.816" viewBox="0 0 64.25 50.816">
  <g id="Сгруппировать_918" data-name="Сгруппировать 918" transform="translate(-698.6 -3062.985)">
    <g id="Прямоугольник_375" data-name="Прямоугольник 375" transform="translate(698.6 3085.867)" fill="none" stroke="#fff" stroke-linecap="round" stroke-linejoin="round" stroke-width="2">
      <rect width="64.25" height="10.056" stroke="none"/>
      <rect x="1" y="1" width="62.25" height="8.056" fill="none"/>
    </g>
    <g id="Прямоугольник_377" data-name="Прямоугольник 377" transform="translate(698.6 3094.247)" fill="none" stroke="#fff" stroke-linecap="round" stroke-linejoin="round" stroke-width="2">
      <rect width="64.25" height="10.615" stroke="none"/>
      <rect x="1" y="1" width="62.25" height="8.615" fill="none"/>
    </g>
    <g id="Сгруппировать_341" data-name="Сгруппировать 341" transform="translate(716.56 3063.985)">
      <path id="Контур_14" data-name="Контур 14" d="M6318.75,3063.663c-1.644-3.516,3.288-5.859,4.566-9.443s-3.47-7.72-3.47-7.72a9.166,9.166,0,0,1-2.557,8.892C6313.18,3059.6,6318.75,3063.663,6318.75,3063.663Z" transform="translate(-6315.777 -3046.5)" fill="none" stroke="#fff" stroke-linecap="round" stroke-linejoin="round" stroke-width="2"/>
      <path id="Контур_15" data-name="Контур 15" d="M6318.75,3063.663c-1.644-3.516,3.288-5.859,4.566-9.443s-3.47-7.72-3.47-7.72a9.166,9.166,0,0,1-2.557,8.892C6313.18,3059.6,6318.75,3063.663,6318.75,3063.663Z" transform="translate(-6305.439 -3046.5)" fill="none" stroke="#fff" stroke-linecap="round" stroke-linejoin="round" stroke-width="2"/>
      <path id="Контур_16" data-name="Контур 16" d="M6318.75,3063.663c-1.644-3.516,3.288-5.859,4.566-9.443s-3.47-7.72-3.47-7.72a9.166,9.166,0,0,1-2.557,8.892C6313.18,3059.6,6318.75,3063.663,6318.75,3063.663Z" transform="translate(-6295.1 -3046.5)" fill="none" stroke="#fff" stroke-linecap="round" stroke-linejoin="round" stroke-width="2"/>
    </g>
    <g id="Прямоугольник_378" data-name="Прямоугольник 378" transform="translate(698.6 3103.186)" fill="none" stroke="#fff" stroke-linecap="round" stroke-linejoin="round" stroke-width="2">
      <rect width="64.25" height="10.615" stroke="none"/>
      <rect x="1" y="1" width="62.25" height="8.615" fill="none"/>
    </g>
  </g>
</svg>
