<svg xmlns="http://www.w3.org/2000/svg" width="28" height="41" viewBox="0 0 28 41">
  <g id="Сгруппировать_914" data-name="Сгруппировать 914" transform="translate(-526 -1590.987)">
    <g id="Сгруппировать_372" data-name="Сгруппировать 372" transform="translate(528 1592.857)">
      <g id="Объединение_2" data-name="Объединение 2" transform="translate(0 0.13)" fill="none" stroke-linecap="round" stroke-linejoin="round">
        <path d="M0,37V34.3H10.729V0H24V2.7H13.553V34.3H24V37Z" stroke="none"/>
        <path d="M 24 37 L 24 34.29928970336914 L 13.5529203414917 34.29928970336914 L 13.5529203414917 2.70071005821228 L 24 2.70071005821228 L 24 0 L 10.72941017150879 0 L 10.72941017150879 34.29928970336914 L -1.77635683940025e-15 34.29928970336914 L -1.77635683940025e-15 37 L 24 37 M 24 39 L -1.77635683940025e-15 39 C -1.104570031166077 39 -2 38.10456848144531 -2 37 L -2 34.29928970336914 C -2 33.19472122192383 -1.104570031166077 32.29928970336914 -1.77635683940025e-15 32.29928970336914 L 8.729410171508789 32.29928970336914 L 8.729410171508789 0 C 8.729410171508789 -1.104570031166077 9.624839782714844 -2 10.72941017150879 -2 L 24 -2 C 25.10457038879395 -2 26 -1.104570031166077 26 0 L 26 2.70071005821228 C 26 3.805279970169067 25.10457038879395 4.700709819793701 24 4.700709819793701 L 15.5529203414917 4.700709819793701 L 15.5529203414917 32.29928970336914 L 24 32.29928970336914 C 25.10457038879395 32.29928970336914 26 33.19472122192383 26 34.29928970336914 L 26 37 C 26 38.10456848144531 25.10457038879395 39 24 39 Z" stroke="none" fill="#fff"/>
      </g>
      <g id="Сгруппировать_371" data-name="Сгруппировать 371" transform="translate(16.985 6.79)">
        <line id="Линия_15" data-name="Линия 15" x1="1.538" y2="4.999" fill="none" stroke="#fff" stroke-linecap="round" stroke-width="1"/>
        <line id="Линия_16" data-name="Линия 16" x2="1.538" y2="4.999" transform="translate(5.576)" fill="none" stroke="#fff" stroke-linecap="round" stroke-width="1"/>
        <line id="Линия_17" data-name="Линия 17" y2="6.537" transform="translate(3.653)" fill="none" stroke="#fff" stroke-linecap="round" stroke-width="1"/>
      </g>
    </g>
  </g>
</svg>
