<svg xmlns="http://www.w3.org/2000/svg" width="115" height="90.667" viewBox="0 0 115 90.667">
  <g id="Сгруппировать_341" data-name="Сгруппировать 341" transform="translate(-698.6 -3062.485)">
    <g id="Прямоугольник_375" data-name="Прямоугольник 375" transform="translate(698.6 3103.151)" fill="none" stroke="#fff" stroke-linecap="round" stroke-linejoin="round" stroke-width="3">
      <rect width="115" height="18" stroke="none"/>
      <rect x="1.5" y="1.5" width="112" height="15" fill="none"/>
    </g>
    <g id="Прямоугольник_377" data-name="Прямоугольник 377" transform="translate(698.6 3118.151)" fill="none" stroke="#fff" stroke-linecap="round" stroke-linejoin="round" stroke-width="3">
      <rect width="115" height="19" stroke="none"/>
      <rect x="1.5" y="1.5" width="112" height="16" fill="none"/>
    </g>
    <g id="Сгруппировать_341-2" data-name="Сгруппировать 341" transform="translate(730.747 3063.985)">
      <path id="Контур_14" data-name="Контур 14" d="M6321.1,3077.22c-2.941-6.292,5.884-10.487,8.173-16.9s-6.21-13.818-6.21-13.818,2.778,8.389-4.577,15.915S6321.1,3077.22,6321.1,3077.22Z" transform="translate(-6315.777 -3046.5)" fill="none" stroke="#fff" stroke-linecap="round" stroke-linejoin="round" stroke-width="3"/>
      <path id="Контур_15" data-name="Контур 15" d="M6321.1,3077.22c-2.941-6.292,5.884-10.487,8.173-16.9s-6.21-13.818-6.21-13.818,2.778,8.389-4.577,15.915S6321.1,3077.22,6321.1,3077.22Z" transform="translate(-6297.272 -3046.5)" fill="none" stroke="#fff" stroke-linecap="round" stroke-linejoin="round" stroke-width="3"/>
      <path id="Контур_16" data-name="Контур 16" d="M6321.1,3077.22c-2.941-6.292,5.884-10.487,8.173-16.9s-6.21-13.818-6.21-13.818,2.778,8.389-4.577,15.915S6321.1,3077.22,6321.1,3077.22Z" transform="translate(-6278.767 -3046.5)" fill="none" stroke="#fff" stroke-linecap="round" stroke-linejoin="round" stroke-width="3"/>
    </g>
    <g id="Прямоугольник_378" data-name="Прямоугольник 378" transform="translate(698.6 3134.151)" fill="none" stroke="#fff" stroke-linecap="round" stroke-linejoin="round" stroke-width="3">
      <rect width="115" height="19" stroke="none"/>
      <rect x="1.5" y="1.5" width="112" height="16" fill="none"/>
    </g>
  </g>
</svg>
