<svg xmlns="http://www.w3.org/2000/svg" width="52" height="79" viewBox="0 0 52 79">
  <g id="Сгруппировать_372" data-name="Сгруппировать 372" transform="translate(-543 -1489.944)">
    <g id="Объединение_2" data-name="Объединение 2" transform="translate(546 1492.944)" fill="none" stroke-linecap="round" stroke-linejoin="round">
      <path d="M0,73V67.672H20.565V0H46V5.328H25.976V67.672H46V73Z" stroke="none"/>
      <path d="M 46 73 L 46 67.67157745361328 L 25.9764347076416 67.67157745361328 L 25.9764347076416 5.328423500061035 L 46 5.328423500061035 L 46 0 L 20.56469345092773 0 L 20.56469345092773 67.67157745361328 L 0 67.67157745361328 L 0 73 L 46 73 M 46 76 L 0 76 C -1.656858801841736 76 -3 74.6568603515625 -3 73 L -3 67.67157745361328 C -3 66.01471710205078 -1.656858801841736 64.67157745361328 0 64.67157745361328 L 17.56469345092773 64.67157745361328 L 17.56469345092773 0 C 17.56469345092773 -1.656858801841736 18.90783500671387 -3 20.56469345092773 -3 L 46 -3 C 47.6568603515625 -3 49 -1.656858801841736 49 0 L 49 5.328423500061035 C 49 6.985282421112061 47.6568603515625 8.328423500061035 46 8.328423500061035 L 28.9764347076416 8.328423500061035 L 28.9764347076416 64.67157745361328 L 46 64.67157745361328 C 47.6568603515625 64.67157745361328 49 66.01471710205078 49 67.67157745361328 L 49 73 C 49 74.6568603515625 47.6568603515625 76 46 76 Z" stroke="none" fill="#fff"/>
    </g>
    <g id="Сгруппировать_371" data-name="Сгруппировать 371" transform="translate(578.844 1507.277)">
      <line id="Линия_15" data-name="Линия 15" x1="2.974" y2="9.667" fill="none" stroke="#fff" stroke-linecap="round" stroke-width="2"/>
      <line id="Линия_16" data-name="Линия 16" x2="2.974" y2="9.667" transform="translate(10.782)" fill="none" stroke="#fff" stroke-linecap="round" stroke-width="2"/>
      <line id="Линия_17" data-name="Линия 17" y2="12.642" transform="translate(7.064)" fill="none" stroke="#fff" stroke-linecap="round" stroke-width="2"/>
    </g>
  </g>
</svg>
