<svg xmlns="http://www.w3.org/2000/svg" width="1500" height="760" viewBox="0 0 1500 760">
  <rect id="Прямоугольник_624" data-name="Прямоугольник 624" width="730" height="360" fill="#f9fafa"/>
  <rect id="Прямоугольник_625" data-name="Прямоугольник 625" width="730" height="360" transform="translate(770)" fill="#00eed6"/>
  <rect id="Прямоугольник_626" data-name="Прямоугольник 626" width="730" height="360" transform="translate(0 400)" fill="#00eed6"/>
  <rect id="Прямоугольник_627" data-name="Прямоугольник 627" width="730" height="360" transform="translate(770 400)" fill="#f9fafa"/>
  <text id="Образцы_продукции" data-name="Образцы продукции" transform="translate(50 78)" font-size="30" font-family="Rubik-Bold, Rubik" font-weight="700"><tspan x="0" y="0">Образцы продукции</tspan></text>
  <text id="Предоставление_образцов_продукции" data-name="Предоставление образцов продукции" transform="translate(50 106)" font-size="18" font-family="Rubik-Regular, Rubik"><tspan x="0" y="17">предоставление образцов </tspan><tspan x="0" y="47">продукции</tspan></text>
  <text id="Реклама" transform="translate(1450 78)" font-size="30" font-family="Rubik-Bold, Rubik" font-weight="700"><tspan x="-132.15" y="0">Реклама</tspan></text>
  <text id="Распространение_информации_о_компании-партнёре_более_25_000_подписчиков_" data-name="Распространение информации о компании-партнёре 
(более 25 000 подписчиков)" transform="translate(1150 106)" font-size="18" font-family="Rubik-Regular, Rubik"><tspan x="14.538" y="17">распространение информации о </tspan><tspan x="123.6" y="47">компании-партнёре </tspan><tspan x="53.976" y="77">(более 25 000 подписчиков)</tspan></text>
  <text id="Обслуживание_ремонт_своевременная_замена" data-name="Обслуживание, 
ремонт, 
своевременная замена" transform="translate(1450 543)" font-size="30" font-family="Rubik-Bold, Rubik" font-weight="700"><tspan x="-247.29" y="0">Обслуживание, </tspan><tspan x="-127.08" y="40">ремонт, </tspan><tspan x="-357.78" y="80">своевременная замена</tspan></text>
  <text id="Аудит_состояния_продукции_в_процессе_эксплуатации" data-name="Аудит состояния продукции в процессе эксплуатации" transform="translate(1150 651)" font-size="18" font-family="Rubik-Regular, Rubik"><tspan x="39.576" y="17">аудит состояния продукции в </tspan><tspan x="90.552" y="47">процессе эксплуатации</tspan></text>
  <text id="Создание_экспозиций" data-name="Создание 
экспозиций" transform="translate(50 559)" font-size="30" font-family="Rubik-Bold, Rubik" font-weight="700"><tspan x="0" y="0">Создание </tspan><tspan x="0" y="40">экспозиций</tspan></text>
  <text id="Создание_демонстрационных_экспозиций_на_объекте_или_в_офисе_партнёра" data-name="Создание демонстрационных экспозиций на объекте или в офисе партнёра" transform="translate(50 627)" font-size="18" font-family="Rubik-Regular, Rubik"><tspan x="0" y="17">создание демонстрационных </tspan><tspan x="0" y="47">экспозиций на объекте или в </tspan><tspan x="0" y="77">офисе партнёра</tspan></text>
  <g id="Сгруппировать_619" data-name="Сгруппировать 619" transform="translate(-210 -429)">
    <path id="Контур_17" data-name="Контур 17" d="M7132.267,3219h112.407v200H7132.267Z" transform="translate(-6358.722 -2630)" fill="#00eed6"/>
    <path id="Вычитание_8" data-name="Вычитание 8" d="M-17124.037-2276.5v-105.467c26.125-7.488,39.943-27.777,46.936-43.479a118.367,118.367,0,0,0,7.375-22.757,90.479,90.479,0,0,0,1.629-9.842v-.007h109.434a.138.138,0,0,1,0,.03c.1.8.6,5.1.766,11.8a198.894,198.894,0,0,1-1.59,30.023,180.382,180.382,0,0,1-9.791,40.014,146.776,146.776,0,0,1-23.828,41.8,138.1,138.1,0,0,1-21.244,20.814,151.275,151.275,0,0,1-28.252,17.5,188.425,188.425,0,0,1-36.238,12.812,260.325,260.325,0,0,1-45.2,6.755Zm-205-143a183.483,183.483,0,0,1,0-37.879v37.879Z" transform="translate(18103.539 3288)" fill="#00eed6"/>
    <path id="Контур_19" data-name="Контур 19" d="M7132.267,3219h112.407v202.533H7132.267Z" transform="translate(-6098.227 -2630)" fill="#fff"/>
    <path id="Вычитание_7" data-name="Вычитание 7" d="M-17163.037-2268.222h0a259.66,259.66,0,0,1-45.465-6.15,186.347,186.347,0,0,1-36.451-12.4,148.679,148.679,0,0,1-28.416-17.264,135.721,135.721,0,0,1-21.359-20.748,145.491,145.491,0,0,1-24.166-42.717,182.668,182.668,0,0,1-9.674-41.212,205.331,205.331,0,0,1-1.309-31.065c.275-7.62.922-12.239.93-12.275h110.1a97.772,97.772,0,0,0,1.311,10.753,123.072,123.072,0,0,0,6.834,24.537c6.721,16.769,20.447,38.031,47.672,44.1v104.44h0Z" transform="translate(18103.539 3280)" fill="#fff"/>
  </g>
</svg>
