<svg xmlns="http://www.w3.org/2000/svg" width="1500" height="750" viewBox="0 0 1500 750">
  <g id="Сгруппировать_655" data-name="Сгруппировать 655" transform="translate(-210 -429)">
    <rect id="Прямоугольник_624" data-name="Прямоугольник 624" width="480" height="360" transform="translate(210 429)" fill="#f9fafa"/>
    <text id="Образцы_продукции" data-name="Образцы продукции" transform="translate(260 507)" font-size="30" font-family="Rubik-Bold, Rubik" font-weight="700"><tspan x="0" y="0">Образцы продукции</tspan></text>
    <text id="Предоставление_образцов_продукции" data-name="Предоставление образцов продукции" transform="translate(260 535)" font-size="18" font-family="Rubik-Regular, Rubik"><tspan x="0" y="17">предоставление образцов </tspan><tspan x="0" y="47">продукции</tspan></text>
  </g>
  <text id="Большой_ассортимент_серийной_продукции" data-name="Большой ассортимент серийной продукции" transform="translate(234 585.801)" fill="#fff" font-size="18" font-family="Rubik-Regular, Rubik"><tspan x="38.232" y="17">большой ассортимент </tspan><tspan x="42.804" y="47">серийной продукции</tspan></text>
  <g id="Сгруппировать_656" data-name="Сгруппировать 656" transform="translate(290 -429)">
    <rect id="Прямоугольник_624-2" data-name="Прямоугольник 624" width="480" height="360" transform="translate(220 429)" fill="#f35877"/>
    <g id="Сгруппировать_657" data-name="Сгруппировать 657" transform="translate(50)">
      <text id="Ассортимент" transform="translate(308 507)" fill="#fff" font-size="30" font-family="Rubik-Bold, Rubik" font-weight="700"><tspan x="0" y="0">Ассортимент</tspan></text>
      <text id="большой_ассортимент_серийной_продукции-2" data-name="большой ассортимент серийной продукции" transform="translate(260 535)" fill="#fff" font-size="18" font-family="Rubik-Regular, Rubik"><tspan x="8.565" y="17">большой ассортимент серийной </tspan><tspan x="102.471" y="47">продукции</tspan></text>
    </g>
  </g>
  <g id="Сгруппировать_658" data-name="Сгруппировать 658" transform="translate(810 -429)">
    <rect id="Прямоугольник_624-3" data-name="Прямоугольник 624" width="480" height="360" transform="translate(210 429)" fill="#f9fafa"/>
    <text id="Консультации" transform="translate(420 507)" font-size="30" font-family="Rubik-Bold, Rubik" font-weight="700"><tspan x="0" y="0">Консультации</tspan></text>
    <text id="экспертная_проработка_и_адаптация_дизайн-проектов" data-name="экспертная проработка и адаптация дизайн-проектов" transform="translate(340 535)" font-size="18" font-family="Rubik-Regular, Rubik"><tspan x="77.754" y="17">экспертная проработка и </tspan><tspan x="50.61" y="47">адаптация дизайн-проектов</tspan></text>
  </g>
  <g id="Сгруппировать_659" data-name="Сгруппировать 659" transform="translate(-210 -39)">
    <rect id="Прямоугольник_624-4" data-name="Прямоугольник 624" width="480" height="360" transform="translate(210 429)" fill="#f35877"/>
  </g>
  <text id="Разработка_и_реализация_изделий_по_индивидуальному_заказу" data-name="Разработка и реализация изделий по индивидуальному заказу" transform="translate(52 605)" fill="#fff" font-size="18" font-family="Rubik-Regular, Rubik"><tspan x="0" y="17">разработка и реализация </tspan><tspan x="0" y="47">изделий по индивидуальному </tspan><tspan x="0" y="77">заказу</tspan></text>
  <text id="Индивидуальный_заказ" data-name="Индивидуальный
заказ" transform="translate(50 537)" fill="#fff" font-size="30" font-family="Rubik-Bold, Rubik" font-weight="700"><tspan x="0" y="0">Индивидуальный</tspan><tspan x="0" y="40">заказ</tspan></text>
  <g id="Сгруппировать_660" data-name="Сгруппировать 660" transform="translate(290 -39)">
    <rect id="Прямоугольник_624-5" data-name="Прямоугольник 624" width="480" height="360" transform="translate(220 429)" fill="#f9fafa"/>
  </g>
  <g id="Сгруппировать_662" data-name="Сгруппировать 662" transform="translate(810 -39)">
    <rect id="Прямоугольник_624-6" data-name="Прямоугольник 624" width="480" height="360" transform="translate(210 429)" fill="#f35877"/>
  </g>
  <text id="_в_подборе_и_комплектации_проектов_изделиями_из_фибробетона" data-name=" в подборе и комплектации проектов изделиями из фибробетона" transform="translate(1180 605)" fill="#fff" font-size="18" font-family="Rubik-Regular, Rubik"><tspan x="33.084" y="17" xml:space="preserve"> в подборе и комплектации </tspan><tspan x="64.494" y="47">проектов изделиями из </tspan><tspan x="153.63" y="77">фибробетона</tspan></text>
  <text id="Помощь" transform="translate(1327 577)" fill="#fff" font-size="30" font-family="Rubik-Bold, Rubik" font-weight="700"><tspan x="0" y="0">Помощь</tspan></text>
  <g id="Сгруппировать_663" data-name="Сгруппировать 663" transform="translate(-351.426 -3113)">
    <path id="Контур_20" data-name="Контур 20" d="M7320.222,4494H7173.2v190.4h102.478V4582.709h44.545Z" transform="translate(-5968.999 -1208)" fill="#fff"/>
    <path id="Контур_21" data-name="Контур 21" d="M7174.2,4674.1v197.454l138.726.307v-76.627l-39.417-.308v-95.091l39.417.115V4674.1Z" transform="translate(-5970 -1180.26)" fill="#f35877"/>
    <path id="Контур_22" data-name="Контур 22" d="M7340.5,4587.2v-91.914s58.338-7.819,102.645,23.185c29.408,18.57,44.42,63.241,47.631,87.18,7.754,57.823-11.939,79.156-11.939,79.156H7340.5s37.16-15.3,37.354-53.366S7340.5,4587.2,7340.5,4587.2Z" transform="translate(-5971.002 -1208.408)" fill="#f35877"/>
    <path id="Контур_23" data-name="Контур 23" d="M7337,4700.173V4672.9h124.931s54.218,30.193,34.948,109.941c-7.5,31.022-21.435,49.958-61.4,72.1S7337,4872.545,7337,4872.545v-77.381s56.014-5.587,49.155-53.651c-2.187-15.332-7.863-21.515-15.025-27.552C7356.735,4701.814,7337,4700.173,7337,4700.173Z" transform="translate(-5967.503 -1181.328)" fill="#fff"/>
  </g>
  <g id="Сгруппировать_661" data-name="Сгруппировать 661" transform="translate(-410 -3038)">
    <text id="Наличие_популярных_моделей_на_складе" data-name="Наличие популярных моделей на складе" transform="translate(1025 3667)" font-size="18" font-family="Rubik-Regular, Rubik"><tspan x="3.861" y="17">наличие популярных моделей </tspan><tspan x="91.926" y="47">на складе</tspan></text>
    <text id="Доступность" transform="translate(1060 3639.231)" font-size="30" font-family="Rubik-Bold, Rubik" font-weight="700"><tspan x="0" y="0">Доступность</tspan></text>
  </g>
</svg>
